<svg xmlns="http://www.w3.org/2000/svg" width="400" height="400">
  <path fill-rule="evenodd" d="M373.392 219.846c-.292-2.473-.796-4.917-1.216-7.374-.023-.123-.079-.245-.122-.361-1.285-3.34-2.711-6.568-4.936-9.454-2.491-3.232-5.588-5.693-8.934-7.904-.46-.304-.982-.531-1.497-.732-3.977-1.568-8.093-2.613-12.308-3.326a21661.172 21661.172 0 0 1-51.96-8.831c-3.87-.663-7.737-1.201-11.667-1.195-1.456.003-2.944-.087-4.358.188-1.804.35-3.592.908-5.304 1.577-6.769 2.65-11.895 7.284-15.817 13.33a3.43 3.43 0 0 0-.303.568c-1.359 3.526-2.771 7.032-3.407 10.8-3.391 20.088-6.82 40.163-10.239 60.24-.057.341-.113.681-.141 1.025-.141 1.664.609 2.83 2.186 3.365.567.191 1.153.361 1.741.465a701.84 701.84 0 0 0 9.044 1.526c4.42.708 8.835 1.444 13.271 2.057 1.907.261 3.855.263 5.783.342 1.718.076 3.271-.638 4.886-1.058 4.5-1.16 8.334-3.46 11.579-6.724 1.906-1.916 3.562-4.007 4.717-6.545 1.721-3.774 2.661-7.696 3.319-11.752 1.338-8.247 2.786-16.475 4.188-24.712.274-1.61.589-3.213 1.319-4.701 1.088-2.22 2.871-3.495 5.281-3.893 1.959-.324 3.876-.079 5.671.758 2.567 1.196 3.983 3.212 3.995 6.095a15.86 15.86 0 0 1-.201 2.57c-1.441 8.757-2.868 17.511-4.367 26.253-.585 3.434-1.3 6.848-2.033 10.255-.635 2.957-1.545 5.819-3.377 8.298-.282.38-.496.812-.691 1.241-1.091 2.437-2.848 4.403-4.59 6.354-2.739 3.062-5.863 5.707-9.401 7.814-2.818 1.671-5.747 3.123-8.886 4.095-2.831.874-5.659 1.765-8.669 1.743-.087 0-.173.007-.256.028-3.457.872-6.913.547-10.37-.002-2.635-.417-5.271-.848-7.911-1.249a29.385 29.385 0 0 0-2.827-.287c-1.538-.067-2.262.731-2.019 2.241.111.673.273 1.362.55 1.982 1.801 4.091 3.51 8.237 5.517 12.23 1.812 3.61 3.988 7.03 5.961 10.563.643 1.162 1.195 2.38 1.7 3.613a4.506 4.506 0 0 1 .068 3.289c-.723 1.993-2.071 3.545-3.655 4.912a2.447 2.447 0 0 1-.782.438c-1.183.392-2.359.82-3.568 1.11-1.405.336-2.729.021-3.904-.841-1.22-.893-2.316-1.896-3.193-3.155-2.499-3.572-4.774-7.274-6.626-11.223-1.365-2.919-2.696-5.858-3.926-8.841-.864-2.1-1.52-4.286-2.278-6.431-1.158-3.284-2.205-6.603-2.786-10.045-.375-2.233-1.715-3.479-3.85-3.969a26.393 26.393 0 0 0-2.034-.372c-3.553-.536-6.702-4.305-6.502-7.6.033-.517.062-1.031.146-1.539 1.615-9.599 3.24-19.195 4.841-28.794.138-.802.209-1.626.186-2.438-.039-1.198-.825-2.046-1.94-1.993-1.882.098-3.788.177-5.628.535-1.993.388-3.966.701-5.998.711-3.13.016-6.261.086-9.397.124-1.741.021-2.451.517-3.075 2.188-.121.32-.209.653-.286.989-.534 2.406-1.322 4.715-2.48 6.896-.326.604-.675 1.22-.856 1.874-.847 2.998-2.85 5.319-4.759 7.596-2.448 2.925-5.236 5.542-8.665 7.438-4.253 2.351-8.575 4.357-13.503 4.706a3.105 3.105 0 0 0-.634.109c-2.797.758-5.614.728-8.437.23-2.201-.389-4.417-.744-6.595-1.251-3.272-.757-5.922-2.884-8.917-4.26-.192-.086-.358-.233-.529-.367-2.473-2.002-4.973-4.011-6.92-6.543a414.604 414.604 0 0 1-8.299-11.199c-3.618-5.035-7.136-10.139-10.733-15.189-3.99-5.617-8.039-11.19-12.028-16.809-3.934-5.545-7.815-11.133-11.737-16.688-3.407-4.815-6.845-9.608-10.264-14.416-5.829-8.218-11.65-16.443-17.487-24.655-2.695-3.787-5.416-7.56-8.144-11.325-2.267-3.137-5.396-5.156-8.903-6.576-1.412-.572-2.982-.851-4.507-1.013-2.557-.261-5.014.565-7.497 1.004-.375.062-.728.262-1.082.418-2.154.922-4.18 2.091-5.901 3.664-2.156 1.978-4.171 4.098-5.011 7.061-.253.894-.768 1.71-1.165 2.56a544.96 544.96 0 0 1-.476 2.804c.069 1.234.198 2.472.195 3.702-.004 2.914 1.073 5.499 2.563 7.875 1.916 3.063 4.02 6.01 6.091 8.972a2146.671 2146.671 0 0 0 10.547 14.995c2.862 4.037 5.773 8.038 8.651 12.067 1.9 2.659 3.783 5.335 5.675 8.003 3.284 4.636 6.568 9.271 9.848 13.908 3.082 4.359 6.155 8.726 9.239 13.076 2.14 3.023 4.303 6.028 6.442 9.047 3.011 4.251 6.005 8.512 9.017 12.755 1.372 1.936 2.771 3.842 4.146 5.771 2.93 4.097 5.851 8.197 8.766 12.302 2.021 2.843 4.028 5.694 6.042 8.538l8.658 12.225c4.619 6.537 9.257 13.062 13.865 19.61 4.014 5.707 8.172 11.309 12.816 16.519 3.861 4.334 7.862 8.551 12.342 12.269a634.758 634.758 0 0 0 7.289 5.953c.465.378.995.667 1.5.993.793.513 1.594 1.014 2.383 1.525 1.012.652 2.033 1.279 3.016 1.968 2.289 1.601 4.744 2.882 7.212 4.183 2.241 1.183 4.436 2.4 6.797 3.343 2.068.829 4.03 1.925 6.1 2.744 1.748.703 3.632 1.074 5.371 1.786 3.676 1.494 7.494 2.509 11.293 3.578.246.068.48.188.712.28 4.162.707 8.324 1.414 12.485 2.118 1.796.068 3.598.156 5.4.191 2.316.044 4.637.026 6.952.062 2.361.037 4.722.138 7.083.153 1.022.005 2.052-.111 3.078-.212 1.491-.144 2.986-.311 4.475-.486 1.661-.199 3.314-.484 4.975-.622 3.602-.299 7.074-1.351 10.639-1.837.299-.039.608-.054.893-.138 2.347-.688 4.692-1.386 7.034-2.087.535-.156 1.06-.349 1.591-.512 2.254-.706 4.54-1.321 6.752-2.134 2.858-1.061 5.706-2.188 8.479-3.461 2.775-1.269 5.471-2.722 8.165-4.155 5.982-3.183 11.665-6.849 16.987-11.026 3.277-2.574 6.315-5.456 9.417-8.25 3.592-3.231 6.755-6.86 9.739-10.653 1.407-1.79 2.958-3.482 4.217-5.372 1.612-2.434 3.328-4.791 4.862-7.283 1.783-2.891 3.306-5.919 5.024-8.842.649-1.104 1.137-2.305 1.669-3.479.574-1.242 1.049-2.54 1.687-3.749.909-1.722 1.712-3.485 2.165-5.372.69-2.901 1.93-5.605 2.897-8.403.688-1.984 1.239-4.031 1.713-6.073.494-2.141.819-4.316 1.238-6.472.083-.41.24-.81.365-1.215l9.938-58.588c.017-.47.013-.939.049-1.405.096-1.113.399-2.243.271-3.325zM146.078 55.442c5.843 8.256 11.713 16.496 17.564 24.75 1.919 2.707 3.794 5.436 5.718 8.138 3.218 4.521 6.48 9.018 9.692 13.548 3.338 4.703 6.623 9.446 9.968 14.146 4.342 6.101 8.74 12.17 13.082 18.269 4.695 6.597 9.354 13.212 14.03 19.818 4.456 6.289 8.916 12.575 13.372 18.86 2.614 3.688 5.223 7.378 7.859 11.052.419.586.914 1.152 1.478 1.592.905.699 1.843.618 2.706-.108.328-.278.63-.589.915-.912 1.699-1.885 3.357-3.806 5.087-5.666 2.494-2.689 5.191-5.156 8.289-7.145 3.447-2.214 7.137-3.969 10.86-5.666.582-.267 1.176-.553 1.682-.944 1.182-.919 1.372-2.018.598-3.29-.491-.807-1.051-1.578-1.597-2.352-6.807-9.582-13.622-19.16-20.421-28.745-6.952-9.799-13.887-19.604-20.833-29.406a55700.654 55700.654 0 0 0-20.561-28.964c-6.527-9.2-13.062-18.395-19.589-27.593-4.636-6.53-9.251-13.077-13.899-19.592-.899-1.263-1.895-2.456-2.892-3.641-1.344-1.584-2.845-2.976-4.762-3.89-1.464-.693-2.888-1.479-4.332-2.227-.934-.157-1.866-.317-2.802-.476-.768.05-1.546.044-2.303.165-3.151.507-6.23 1.192-9.019 2.891-3.312 2.02-5.97 4.638-7.732 8.096-.66 1.293-1.067 2.716-1.622 4.069-.512 1.261-.614 2.56-.665 3.91-.162 4.236.958 8.087 3.324 11.57 2.225 3.276 4.515 6.512 6.805 9.743zm67.328 123.096a5511.52 5511.52 0 0 0-14.723-20.758c-1.595-2.242-3.204-4.484-4.925-6.635-2.168-2.715-4.617-5.119-8.062-6.181-1.477-.453-2.941-1.108-4.45-1.243-3.315-.287-6.567.001-9.693 1.453-2.376 1.107-4.509 2.45-6.388 4.278-1.438 1.406-2.465 3.065-3.556 4.717-1.195 1.807-1.93 3.732-2.284 5.849-.092.981-.231 1.96-.276 2.949-.03.595.003 1.214.128 1.794.688 3.306 1.695 6.494 3.669 9.299 2.87 4.085 5.727 8.18 8.602 12.262a8576.793 8576.793 0 0 0 11.837 16.779c2.189 3.088 4.456 6.129 6.602 9.25 2.542 3.692 5.048 7.398 7.953 10.819 1.579 1.861 3.626 3.144 5.617 4.49.381.255.856.421 1.305.532 1.463.355 2.92.776 4.406.972 1.824.234 3.68.466 5.51-.035 2.954-.81 5.815-1.802 8.335-3.639 2.045-1.486 3.877-3.196 5.231-5.29 1.044-1.609 1.75-3.449 2.5-5.232.331-.774.518-1.649.586-2.497.37-4.731-.564-9.185-3.289-13.117-4.835-6.97-9.742-13.89-14.635-20.816zm-94.16 29.415c4.968 7.028 9.964 14.036 14.949 21.056 3.691 5.189 7.379 10.385 11.079 15.567 2.275 3.189 4.518 6.399 6.878 9.522 2.343 3.098 5.334 5.392 9.171 6.293 4.11.966 8.21 1.178 12.267-.509 4.315-1.794 7.663-4.698 10.319-8.466.269-.383.458-.826.637-1.265 1.349-3.266 1.969-6.675 1.826-10.199-.038-1.016-.288-2.04-.571-3.024-.811-2.802-2.293-5.268-3.978-7.632-4.837-6.8-9.667-13.611-14.498-20.42-5.356-7.547-10.722-15.089-16.06-22.644-2.146-3.041-4.447-5.896-7.572-8.019-1.341-.911-2.726-1.613-4.313-1.924-.59-.113-1.172-.279-1.766-.379-2.163-.359-4.354-.874-6.521-.312-2.909.759-5.758 1.701-8.255 3.507-2.991 2.164-5.381 4.821-6.898 8.18-.644 1.433-.936 3.027-1.383 4.547.058.018.115.029.169.046-.099.592-.228 1.185-.293 1.781-.24 2.199-.1 4.323.629 6.474.967 2.861 2.466 5.394 4.184 7.82z" clip-rule="evenodd"/>
</svg>
