<?xml version="1.0" standalone="no"?>
<!DOCTYPE svg PUBLIC "-//W3C//DTD SVG 20010904//EN"
 "http://www.w3.org/TR/2001/REC-SVG-20010904/DTD/svg10.dtd">
<svg version="1.0" xmlns="http://www.w3.org/2000/svg"
 width="400.000000pt" height="400.000000pt" viewBox="0 0 400.000000 400.000000"
 preserveAspectRatio="xMidYMid meet">
<metadata>
Created by potrace 1.11, written by Peter Selinger 2001-2013
</metadata>
<g transform="translate(0.000000,400.000000) scale(0.100000,-0.100000)"
fill="#000000" stroke="none">
<path d="M2031 3865 c-52 -19 -106 -69 -132 -122 l-23 -48 -2 -838 c-1 -461
-5 -860 -8 -887 -21 -174 -128 -300 -253 -300 -62 0 -145 29 -203 71 -60 43
-100 45 -152 4 -68 -51 -108 -68 -179 -73 -122 -8 -221 49 -273 158 -21 44
-21 54 -22 725 -2 752 -2 747 -66 808 -139 133 -368 58 -403 -131 -6 -32 -6
-1641 0 -1727 6 -89 14 -169 20 -204 5 -33 9 -60 20 -131 17 -116 99 -388 143
-475 36 -72 94 -156 153 -219 52 -57 180 -166 194 -166 5 0 22 -11 39 -24 33
-24 196 -93 256 -107 32 -8 59 -12 165 -23 22 -3 56 -11 75 -18 55 -20 280
-17 360 6 102 29 276 119 375 193 50 37 169 146 266 243 446 445 516 505 694
601 68 37 175 77 225 85 14 2 36 7 50 10 14 3 65 8 113 9 107 4 137 23 184
112 53 100 57 155 19 238 -46 100 -157 184 -280 209 -111 24 -218 12 -376 -41
-140 -47 -220 -88 -376 -193 -73 -49 -147 -92 -166 -95 -32 -6 -38 -3 -59 26
l-23 33 -2 1062 -2 1061 -25 49 c-32 63 -60 87 -136 113 -67 23 -137 25 -190
6z"/>
<path d="M1045 2682 c-81 -14 -142 -57 -178 -126 -20 -39 -21 -53 -22 -356 l0
-315 24 -42 c49 -85 143 -125 245 -103 50 10 67 20 107 61 34 35 50 61 57 92
12 60 13 572 1 628 -12 52 -56 112 -100 135 -34 17 -105 31 -134 26z"/>
<path d="M1504 2666 c-53 -25 -91 -66 -114 -124 -10 -25 -13 -110 -14 -335 0
-340 1 -345 74 -411 46 -41 107 -60 172 -53 57 7 96 26 138 68 58 58 59 70 60
427 1 166 -3 278 -11 304 -7 27 -27 58 -53 84 -67 67 -161 82 -252 40z"/>
</g>
</svg>
