<?xml version="1.0" standalone="no"?>
<!DOCTYPE svg PUBLIC "-//W3C//DTD SVG 20010904//EN"
 "http://www.w3.org/TR/2001/REC-SVG-20010904/DTD/svg10.dtd">
<svg version="1.0" xmlns="http://www.w3.org/2000/svg"
 width="400.000000pt" height="400.000000pt" viewBox="0 0 400.000000 400.000000"
 preserveAspectRatio="xMidYMid meet">
<metadata>
Created by potrace 1.11, written by Peter Selinger 2001-2013
</metadata>
<g transform="translate(0.000000,400.000000) scale(0.100000,-0.100000)"
fill="#000000" stroke="none">
<path d="M1498 3838 c-49 -13 -113 -77 -130 -131 -23 -69 -8 -117 74 -237 39
-58 76 -109 80 -115 5 -5 73 -100 150 -210 78 -110 247 -348 376 -530 129
-181 258 -363 286 -402 28 -40 57 -73 64 -73 7 0 43 30 80 68 40 40 93 81 132
101 89 46 92 49 79 73 -6 11 -66 97 -133 191 -118 167 -296 418 -440 622 -39
55 -74 105 -79 110 -4 6 -57 80 -117 165 -60 85 -113 160 -117 165 -5 6 -28
38 -52 73 -87 128 -146 159 -253 130z"/>
<path d="M1737 2556 c-79 -23 -147 -106 -147 -181 0 -64 10 -80 278 -460 127
-180 149 -199 227 -207 148 -16 265 144 201 274 -23 45 -344 494 -378 529 -50
50 -112 65 -181 45z"/>
<path d="M390 2517 c-83 -39 -131 -115 -123 -196 5 -57 22 -84 224 -369 89
-125 216 -303 282 -397 261 -368 292 -412 331 -466 23 -30 64 -88 91 -127 112
-162 221 -311 273 -375 171 -211 424 -361 707 -421 51 -11 115 -14 235 -11
184 4 209 7 330 41 254 73 456 200 617 389 46 55 163 227 163 241 0 3 11 29
24 57 27 60 73 198 80 241 3 16 10 52 15 80 6 28 13 69 16 90 3 21 8 48 10 60
3 12 7 37 10 56 2 19 6 46 9 60 3 14 12 68 21 120 8 52 17 106 20 120 14 62 7
147 -15 196 -51 112 -126 165 -265 188 -16 3 -151 26 -300 52 -148 25 -299 46
-335 46 -83 1 -144 -25 -209 -90 -50 -50 -80 -118 -95 -218 -4 -21 -11 -64
-16 -94 -5 -30 -12 -68 -14 -85 -3 -16 -19 -109 -36 -205 -16 -96 -30 -182
-30 -191 0 -22 37 -34 165 -53 175 -26 217 -21 292 33 62 45 102 124 116 231
12 93 39 238 49 263 6 15 19 32 29 37 30 17 78 11 100 -11 18 -18 20 -29 15
-68 -10 -80 -17 -125 -26 -176 -5 -27 -12 -66 -15 -85 -13 -86 -31 -148 -54
-190 -60 -107 -186 -193 -308 -210 -61 -8 -95 -7 -181 8 -86 15 -86 0 1 -171
58 -113 72 -149 65 -166 -12 -34 -34 -52 -71 -58 -29 -4 -37 0 -65 31 -51 59
-110 187 -163 356 -13 40 -19 46 -58 59 -70 22 -74 43 -40 241 15 91 24 169
20 173 -9 9 -15 10 -148 1 l-101 -7 -22 -61 c-39 -110 -92 -172 -184 -219 -30
-15 -69 -30 -88 -32 -18 -3 -42 -7 -53 -9 -33 -7 -125 14 -174 39 -56 28 -108
77 -158 150 -21 29 -108 152 -193 272 -85 120 -214 301 -287 403 -292 411
-281 397 -327 419 -47 23 -116 26 -156 8z"/>
<path d="M1273 2234 c-61 -22 -118 -90 -127 -150 -3 -26 -2 -63 4 -83 8 -29
103 -178 157 -246 5 -5 57 -79 116 -162 60 -84 122 -163 139 -175 38 -26 121
-35 172 -18 52 17 114 81 122 127 4 21 8 46 10 56 6 35 -26 96 -112 218 -167
236 -237 334 -265 370 -51 65 -139 91 -216 63z"/>
</g>
</svg>
